<svg width="120" height="40" viewBox="0 0 120 40" fill="none" xmlns="http://www.w3.org/2000/svg">
  <!-- Background -->
  <rect width="120" height="40" rx="8" fill="black"/>
  <rect x="0.5" y="0.5" width="119" height="39" rx="7.5" stroke="white" stroke-opacity="0.2"/>
  
  <!-- Apple Logo -->
  <g transform="translate(8, 8)">
    <path d="M16.23 4.73c-.58-.78-1.47-1.38-2.54-1.41-.11 1.06.32 2.07.85 2.76.53.69 1.42 1.24 2.32 1.15.09-1.08-.3-2.08-.63-2.5zm2.13 3.7c-1.28-.08-2.38.73-2.99.73-.61 0-1.57-.71-2.58-.69-1.33.02-2.55.77-3.23 1.96-1.38 2.39-.35 5.93.99 7.87.65.95 1.43 2.01 2.44 1.98 1-.04 1.37-.64 2.57-.64 1.2 0 1.54.64 2.58.62 1.07-.02 1.74-.97 2.39-1.92.75-1.1 1.06-2.17 1.08-2.23-.02-.01-2.07-.79-2.09-3.14-.02-1.97 1.61-2.91 1.68-2.96-.92-1.34-2.34-1.5-2.84-1.58z" fill="white"/>
  </g>
  
  <!-- Text -->
  <text x="30" y="15" fill="white" font-family="-apple-system, SF Pro Display, Helvetica, Arial" font-size="7.5" font-weight="400">Available on the</text>
  <text x="30" y="28" fill="white" font-family="-apple-system, SF Pro Display, Helvetica, Arial" font-size="16" font-weight="600">App Store</text>
</svg>