<svg width="32" height="32" viewBox="0 0 32 32" fill="none" xmlns="http://www.w3.org/2000/svg">
  <defs>
    <linearGradient id="faviconGradient" x1="0%" y1="0%" x2="100%" y2="100%">
      <stop offset="0%" style="stop-color:#6366f1;stop-opacity:1" />
      <stop offset="100%" style="stop-color:#06b6d4;stop-opacity:1" />
    </linearGradient>
  </defs>
  
  <rect width="32" height="32" rx="6" fill="url(#faviconGradient)"/>
  
  <!-- Simplified brain symbol -->
  <path d="M10 12 C10 10, 12 8, 14 10 C17 8, 20 10, 20 12 C22 12, 24 14, 24 16 C24 18, 22 20, 20 20 C20 22, 17 24, 14 22 C12 24, 10 22, 10 20 C8 20, 6 18, 6 16 C6 14, 8 12, 10 12 Z" 
        fill="white" opacity="0.9"/>
  
  <!-- Neural nodes -->
  <circle cx="12" cy="14" r="1" fill="white"/>
  <circle cx="16" cy="13" r="1" fill="white"/>
  <circle cx="20" cy="15" r="1" fill="white"/>
  <circle cx="14" cy="18" r="1" fill="white"/>
</svg>
