<svg width="40" height="40" viewBox="0 0 40 40" fill="none" xmlns="http://www.w3.org/2000/svg">
  <defs>
    <linearGradient id="logoGradient" x1="0%" y1="0%" x2="100%" y2="100%">
      <stop offset="0%" style="stop-color:#6366f1;stop-opacity:1" />
      <stop offset="100%" style="stop-color:#06b6d4;stop-opacity:1" />
    </linearGradient>
  </defs>
  
  <!-- Background circle -->
  <circle cx="20" cy="20" r="18" fill="url(#logoGradient)" stroke="white" stroke-width="2"/>
  
  <!-- Brain/AI symbol -->
  <path d="M12 15 C12 12, 15 10, 18 12 C21 10, 24 12, 24 15 C26 15, 28 17, 28 20 C28 23, 26 25, 24 25 C24 28, 21 30, 18 28 C15 30, 12 28, 12 25 C10 25, 8 23, 8 20 C8 17, 10 15, 12 15 Z" 
        fill="white" opacity="0.9"/>
  
  <!-- Neural connections -->
  <circle cx="15" cy="18" r="1.5" fill="white"/>
  <circle cx="20" cy="16" r="1.5" fill="white"/>
  <circle cx="25" cy="19" r="1.5" fill="white"/>
  <circle cx="18" cy="22" r="1.5" fill="white"/>
  
  <!-- Connection lines -->
  <line x1="15" y1="18" x2="20" y2="16" stroke="white" stroke-width="1" opacity="0.7"/>
  <line x1="20" y1="16" x2="25" y2="19" stroke="white" stroke-width="1" opacity="0.7"/>
  <line x1="15" y1="18" x2="18" y2="22" stroke="white" stroke-width="1" opacity="0.7"/>
  <line x1="25" y1="19" x2="18" y2="22" stroke="white" stroke-width="1" opacity="0.7"/>
</svg>
